<?xml version="1.0" standalone="no"?>
<!DOCTYPE svg PUBLIC "-//W3C//DTD SVG 20010904//EN"
 "http://www.w3.org/TR/2001/REC-SVG-20010904/DTD/svg10.dtd">
<svg version="1.0" xmlns="http://www.w3.org/2000/svg"
 width="185.000000pt" height="185.000000pt" viewBox="0 0 185.000000 185.000000"
 preserveAspectRatio="xMidYMid meet">
<metadata>
Created by potrace 1.14, written by Peter Selinger 2001-2017
</metadata>
<g transform="translate(0.000000,185.000000) scale(0.100000,-0.100000)"
fill="#000000" stroke="none">
<path d="M1324 1819 c-11 -6 -99 -128 -195 -271 -96 -143 -182 -270 -191 -281
-10 -11 -18 -24 -18 -29 0 -26 -30 6 -118 125 -148 199 -205 252 -308 288 -88
31 -243 27 -231 -5 3 -7 80 -131 172 -275 91 -145 164 -266 160 -269 -8 -8
-19 -10 -168 -17 -427 -20 -425 -19 -417 -89 5 -53 116 -181 194 -225 71 -41
123 -52 238 -54 80 0 98 -3 93 -15 -3 -7 -43 -69 -89 -136 -47 -68 -90 -142
-96 -167 -21 -79 3 -173 73 -276 60 -90 113 -106 168 -49 19 18 104 140 189
269 85 130 158 237 161 237 4 0 35 -45 70 -101 35 -56 70 -107 77 -114 6 -8
12 -16 12 -20 0 -3 11 -21 25 -39 14 -18 25 -37 25 -42 0 -23 111 -113 160
-129 64 -21 155 -16 202 12 58 34 52 57 -64 241 -160 253 -216 347 -209 349 3
1 123 3 266 6 222 3 265 6 297 21 20 10 39 25 41 34 7 36 -25 101 -76 151 -81
80 -193 130 -327 147 -91 11 -125 16 -128 19 -2 2 40 68 93 146 151 224 161
252 124 342 -34 80 -125 214 -151 221 -28 7 -28 7 -54 -5z"/>
</g>
</svg>
